<svg width="19" height="38" viewBox="0 0 19 38" fill="none" xmlns="http://www.w3.org/2000/svg">
<path d="M15.9984 29.5283C15.42 26.6824 16.9525 23.8051 17.4089 20.942C18.1751 20.052 18.5007 18.7762 17.8237 17.4425C15.9029 13.6479 12.9936 10.6807 10.2972 7.44656C7.72601 4.36191 3.3585 8.81238 5.91169 11.8782C6.68657 12.8081 7.4724 13.7066 8.23867 14.6099C8.31381 16.3561 8.20032 18.0874 7.35891 19.5135C6.90807 20.279 7.13897 21.0093 7.63833 21.4774L7.07166 23.0208L6.09641 22.6624L1.73047 34.1149C1.73047 34.1149 2.63136 36.9726 5.0468 35.3313C5.81698 33.2876 9.41195 23.8795 9.41195 23.8795L8.43592 23.521L9.00181 21.9806C9.46596 21.9462 9.9207 21.7145 10.2291 21.1909C10.7292 20.3432 11.0423 19.4478 11.2333 18.525C11.6669 19.1887 12.0778 19.872 12.4442 20.5991C12.6437 20.9929 12.8887 21.3005 13.1595 21.54C12.6477 24.2505 11.4368 26.7841 11.836 29.6598C12.1264 31.7519 12.7345 33.8042 13.4413 35.7899C14.332 38.2961 18.3465 37.216 17.4472 34.6855C16.85 33.0027 16.3522 31.2792 15.9969 29.5267L15.9984 29.5283Z" fill="#201E52"/>
<path d="M2.24891 3.40544C2.26535 3.58546 2.29352 3.76627 2.34362 3.94551C2.37571 4.0637 2.41562 4.17719 2.46102 4.28755L1.55935 5.03112C1.48421 5.09296 1.47168 5.20566 1.5343 5.2808C1.60553 5.37003 3.1185 7.19999 4.52659 6.8149C4.71365 6.76403 4.89916 6.67245 5.07996 6.53391C5.09484 6.52217 5.10814 6.50652 5.12067 6.49009L5.28268 6.24197C5.57776 6.24823 5.87754 6.21457 6.17732 6.13395C7.83979 5.67998 8.81895 3.96272 8.36576 2.29947C7.91179 0.636223 6.1961 -0.34294 4.53207 0.11103C3.25156 0.4609 2.37963 1.55825 2.25126 2.80275L0.62793 3.24655L0.780554 3.8054L2.24891 3.40465V3.40544ZM4.87959 6.20752L4.83811 6.27171C4.35753 6.62628 3.80415 6.5347 3.30166 6.28424L3.7337 5.78878C4.08201 6.00011 4.47101 6.14412 4.8788 6.20752H4.87959ZM3.4394 5.58371L3.01597 6.06976C3.00501 6.08229 2.99718 6.09325 2.99013 6.10656C2.51346 5.8013 2.11664 5.39664 1.92957 5.19L2.61991 4.6202C2.82811 5.0006 3.10754 5.32541 3.4394 5.58292V5.58371Z" fill="#201E52"/>
<path d="M0.719303 17.5161C0.321688 17.5161 0 17.8386 0 18.2354V32.4806C0 32.8775 0.32247 33.2 0.719303 33.2C1.11613 33.2 1.43783 32.8775 1.43783 32.4806V18.2354C1.43783 17.8378 1.11692 17.5161 0.719303 17.5161Z" fill="#201E52"/>
<path d="M4.29018 18.2354C4.29018 17.8378 3.96848 17.5161 3.57165 17.5161C3.17482 17.5161 2.85156 17.8386 2.85156 18.2354V29.2308L4.29018 25.4566V18.2346V18.2354Z" fill="#201E52"/>
<path d="M7.13197 18.359V18.2362C7.13197 17.8385 6.81029 17.5168 6.41267 17.5168C6.01506 17.5168 5.69336 17.8393 5.69336 18.2362V21.7763L5.76459 21.5885L6.72731 21.9438L6.73436 21.9282C6.2303 21.1189 6.21777 20.124 6.73827 19.2443C6.90186 18.9649 7.02944 18.6682 7.13197 18.3598V18.359Z" fill="#201E52"/>
<path d="M3.33006 17.1326C3.33006 16.9197 3.15865 16.749 2.94732 16.749H1.10482C0.891925 16.749 0.719727 16.9204 0.719727 17.1326C0.719727 17.3447 0.891143 17.5169 1.10482 17.5169H2.94732C3.15865 17.5169 3.33006 17.3447 3.33006 17.1326Z" fill="#201E52"/>
<path d="M6.02914 16.749H4.18587C3.97297 16.749 3.80078 16.9204 3.80078 17.1326C3.80078 17.3447 3.97297 17.5169 4.18587 17.5169H6.02914C6.24126 17.5169 6.41189 17.3447 6.41189 17.1326C6.41189 16.9204 6.24126 16.749 6.02914 16.749Z" fill="#201E52"/>
</svg>
