<svg width="20" height="21" viewBox="0 0 20 21" fill="none" xmlns="http://www.w3.org/2000/svg">
<path d="M10 0.0235596C15.523 0.0235596 20 4.50056 20 10.0236C20.0013 11.5761 19.6405 13.1076 18.9463 14.4963C18.2521 15.8851 17.2436 17.0928 16.001 18.0236H18C18.2652 18.0236 18.5196 18.1289 18.7071 18.3165C18.8946 18.504 19 18.7583 19 19.0236C19 19.2888 18.8946 19.5431 18.7071 19.7307C18.5196 19.9182 18.2652 20.0236 18 20.0236H10C4.477 20.0236 0 15.5466 0 10.0236C0 4.50056 4.477 0.0235596 10 0.0235596ZM10 12.0236C9.46957 12.0236 8.96086 12.2343 8.58578 12.6093C8.21071 12.9844 8 13.4931 8 14.0236C8 14.554 8.21071 15.0627 8.58578 15.4378C8.96086 15.8128 9.46957 16.0236 10 16.0236C10.5304 16.0236 11.0391 15.8128 11.4142 15.4378C11.7893 15.0627 12 14.554 12 14.0236C12 13.4931 11.7893 12.9844 11.4142 12.6093C11.0391 12.2343 10.5304 12.0236 10 12.0236ZM6 8.02356C5.46957 8.02356 4.96086 8.23427 4.58579 8.60935C4.21071 8.98442 4 9.49313 4 10.0236C4 10.554 4.21071 11.0627 4.58579 11.4378C4.96086 11.8128 5.46957 12.0236 6 12.0236C6.53043 12.0236 7.03914 11.8128 7.41421 11.4378C7.78928 11.0627 8 10.554 8 10.0236C8 9.49313 7.78928 8.98442 7.41421 8.60935C7.03914 8.23427 6.53043 8.02356 6 8.02356ZM14 8.02356C13.4696 8.02356 12.9609 8.23427 12.5858 8.60935C12.2107 8.98442 12 9.49313 12 10.0236C12 10.554 12.2107 11.0627 12.5858 11.4378C12.9609 11.8128 13.4696 12.0236 14 12.0236C14.5304 12.0236 15.0391 11.8128 15.4142 11.4378C15.7893 11.0627 16 10.554 16 10.0236C16 9.49313 15.7893 8.98442 15.4142 8.60935C15.0391 8.23427 14.5304 8.02356 14 8.02356ZM10 4.02356C9.46957 4.02356 8.96086 4.23427 8.58578 4.60935C8.21071 4.98442 8 5.49313 8 6.02356C8 6.55399 8.21071 7.0627 8.58578 7.43777C8.96086 7.81285 9.46957 8.02356 10 8.02356C10.5304 8.02356 11.0391 7.81285 11.4142 7.43777C11.7893 7.0627 12 6.55399 12 6.02356C12 5.49313 11.7893 4.98442 11.4142 4.60935C11.0391 4.23427 10.5304 4.02356 10 4.02356Z" fill="white"/>
</svg>
