<svg width="40" height="40" viewBox="0 0 40 40" fill="none" xmlns="http://www.w3.org/2000/svg">
<path d="M27.0632 24.2954C26.8774 24.1088 26.6562 23.9606 26.4126 23.8595C26.169 23.7584 25.9077 23.7063 25.6437 23.7063C25.3798 23.7063 25.1185 23.7584 24.8749 23.8595C24.6312 23.9606 24.4101 24.1088 24.2243 24.2954C23.8519 24.6685 23.6429 25.1733 23.6429 25.6994C23.6429 26.2256 23.8519 26.7303 24.2243 27.1034L36.5797 39.4109C36.7655 39.5976 36.9867 39.7457 37.2303 39.8468C37.4739 39.9479 37.7352 40 37.9992 40C38.2631 40 38.5244 39.9479 38.768 39.8468C39.0117 39.7457 39.2328 39.5976 39.4186 39.4109C39.791 39.0378 40 38.533 40 38.0069C40 37.4808 39.791 36.976 39.4186 36.6029L27.0632 24.2954ZM29.5223 19.3366C31.1125 19.3352 32.637 18.7048 33.7607 17.5841L39.4186 11.9481C39.791 11.575 40 11.0702 40 10.5441C40 10.018 39.791 9.51322 39.4186 9.14009C39.2328 8.95343 39.0117 8.80527 38.768 8.70416C38.5244 8.60306 38.2631 8.551 37.9992 8.551C37.7352 8.551 37.4739 8.60306 37.2303 8.70416C36.9867 8.80527 36.7655 8.95343 36.5797 9.14009L30.9218 14.776C30.5472 15.147 30.0405 15.3552 29.5123 15.3552C28.9841 15.3552 28.4774 15.147 28.1028 14.776L35.1802 7.72612C35.5526 7.35299 35.7616 6.84824 35.7616 6.32211C35.7616 5.79598 35.5526 5.29123 35.1802 4.9181C34.9943 4.73144 34.7732 4.58328 34.5296 4.48218C34.286 4.38107 34.0247 4.32902 33.7607 4.32902C33.4968 4.32902 33.2355 4.38107 32.9919 4.48218C32.7482 4.58328 32.5271 4.73144 32.3413 4.9181L25.2839 11.9481C24.9115 11.575 24.7025 11.0702 24.7025 10.5441C24.7025 10.018 24.9115 9.51322 25.2839 9.14009L30.9218 3.50413C31.1311 3.3256 31.301 3.1059 31.421 2.85883C31.5411 2.61175 31.6085 2.34264 31.6191 2.06837C31.6298 1.7941 31.5834 1.5206 31.4828 1.26504C31.3823 1.00948 31.2299 0.777379 31.035 0.583297C30.8402 0.389216 30.6072 0.237348 30.3506 0.137227C30.0941 0.0371047 29.8195 -0.00910975 29.5442 0.00148403C29.2689 0.0120778 28.9987 0.0792512 28.7506 0.198788C28.5026 0.318324 28.2821 0.487643 28.1028 0.696117L22.4449 6.33207C21.3217 7.45229 20.6909 8.9708 20.6909 10.5541C20.6909 12.1373 21.3217 13.6558 22.4449 14.776L20.0058 17.2455L16.887 14.1786C17.7722 12.5873 18.1069 10.75 17.8395 8.95035C17.5721 7.1507 16.7175 5.48876 15.4075 4.22108C12.5286 1.35331 5.07139 -1.85301 1.55269 1.71178C-1.966 5.27657 1.21282 12.6252 4.01178 15.5129C5.57486 17.0755 7.67639 17.9869 9.8896 18.062H10.1695C11.5212 18.0429 12.8445 17.6721 14.0081 16.9866L17.1469 20.0535L0.593049 36.5432C0.407954 36.7288 0.261387 36.949 0.161717 37.1911C0.0620466 37.4332 0.0112245 37.6925 0.0121528 37.9542C0.013081 38.2159 0.0657411 38.4748 0.167127 38.7162C0.268512 38.9576 0.416638 39.1768 0.603046 39.3611C0.789453 39.5455 1.01049 39.6915 1.25354 39.7908C1.4966 39.8901 1.7569 39.9407 2.01959 39.9398C2.28228 39.9388 2.54222 39.8864 2.78456 39.7854C3.0269 39.6844 3.2469 39.5369 3.43199 39.3512L21.4253 21.4277L25.2639 17.604C25.8243 18.1577 26.489 18.5958 27.2197 18.8931C27.9505 19.1904 28.733 19.3411 29.5223 19.3366ZM12.8685 12.9638C12.4939 13.3347 12.0469 13.625 11.5552 13.8168C11.0634 14.0087 10.5373 14.0979 10.0096 14.079C8.84079 14.0289 7.73711 13.5292 6.9307 12.685C4.7715 10.5341 3.25206 5.65496 4.39164 4.5198C4.77015 4.23538 5.23781 4.09421 5.71115 4.1215C8.26279 4.32409 10.678 5.35215 12.5886 7.04901C13.4048 7.80124 13.8916 8.84287 13.944 9.94932C13.9963 11.0558 13.6101 12.1384 12.8685 12.9638Z" fill="white"/>
</svg>
