<svg width="49" height="48" viewBox="0 0 49 48" fill="none" xmlns="http://www.w3.org/2000/svg">
<path d="M20.4886 0C17.5898 0.0493531 14.9715 1.79666 13.7871 4.49848L27.9693 8.82791C28.5927 5.06972 26.3589 1.42599 22.764 0.32027C22.1198 0.122858 21.4444 0.0147009 20.7691 0H20.4886ZM13.2468 6.3088C12.613 10.0775 14.8468 13.7317 18.4521 14.8343C22.0678 15.9369 25.9225 14.1307 27.4394 10.634L13.2468 6.3088ZM40.8321 10.9595C38.2034 10.97 35.4085 12.2511 33.2994 15.2648L20.3327 33.8405C16.8521 38.8178 18.369 44.0261 21.7977 46.4833C25.2368 48.9509 30.5876 48.6674 34.0682 43.6901L47.0245 25.1249C50.5051 20.1371 48.9882 14.9393 45.5595 12.4716C44.2711 11.5476 42.723 11.012 41.0918 10.9595H40.8321ZM40.645 12.7762C40.7801 12.7762 40.9152 12.7762 41.0399 12.7867C42.297 12.8392 43.4815 13.2907 44.4789 14.0152C47.1491 15.9264 48.4895 19.7381 45.4868 24.0329L38.7852 33.641C35.0656 32.6329 30.2863 29.1992 28.1148 25.9755L34.8371 16.3569C36.593 13.8472 38.6813 12.8182 40.645 12.7762ZM7.38166 20.7777C6.38214 20.7882 5.39614 20.9982 4.47975 21.4077C1.03964 22.9303 -0.75055 26.8155 0.298834 30.4698L13.8806 24.4739C12.5195 22.1533 10.0467 20.7462 7.38166 20.7777ZM14.6182 26.196L1.0386 32.2024C2.95554 35.4996 6.99203 36.8227 10.4519 35.3001C13.9013 33.767 15.6884 29.8607 14.6182 26.196Z" fill="white"/>
</svg>
