<svg width="38" height="38" viewBox="0 0 38 38" fill="none" xmlns="http://www.w3.org/2000/svg">
<path d="M30.4 30.4C28.291 30.4 26.6 32.091 26.6 34.2C26.6 35.2078 27.0004 36.1744 27.713 36.887C28.4256 37.5996 29.3922 38 30.4 38C31.4078 38 32.3744 37.5996 33.087 36.887C33.7996 36.1744 34.2 35.2078 34.2 34.2C34.2 33.1922 33.7996 32.2256 33.087 31.513C32.3744 30.8004 31.4078 30.4 30.4 30.4ZM0 0V3.8H3.8L10.64 18.221L8.056 22.876C7.771 23.408 7.6 24.035 7.6 24.7C7.6 25.7078 8.00036 26.6744 8.71299 27.387C9.42563 28.0996 10.3922 28.5 11.4 28.5H34.2V24.7H12.198C12.072 24.7 11.9512 24.65 11.8621 24.5609C11.773 24.4718 11.723 24.351 11.723 24.225C11.723 24.13 11.742 24.054 11.78 23.997L13.49 20.9H27.645C29.07 20.9 30.324 20.102 30.97 18.943L37.772 6.65C37.905 6.346 38 6.023 38 5.7C38 5.19609 37.7998 4.71282 37.4435 4.3565C37.0872 4.00018 36.6039 3.8 36.1 3.8H7.999L6.213 0M11.4 30.4C9.291 30.4 7.6 32.091 7.6 34.2C7.6 35.2078 8.00036 36.1744 8.71299 36.887C9.42563 37.5996 10.3922 38 11.4 38C12.4078 38 13.3744 37.5996 14.087 36.887C14.7996 36.1744 15.2 35.2078 15.2 34.2C15.2 33.1922 14.7996 32.2256 14.087 31.513C13.3744 30.8004 12.4078 30.4 11.4 30.4Z" fill="white"/>
</svg>
